Genre:Action | Drama | Fantasy
Language:English
 
http://www.imdb.com/title/tt1253864/

Source:DVD5 Thanks!

Format : AVI
Format/Info : Audio Video Interleave
File size : 1.23 GiB
Duration : 1h 45mn
Overall bit rate : 1 664 Kbps

Video
ID : 0
Format : MPEG-4 Visual
Format profile : Advanced Simple@L5
Format settings, BVOP : Yes
Format settings, QPel : No
Format settings, GMC : No warppoints
Format settings, Matrix : Default (H.263)
Codec ID : XVID
Codec ID/Hint : XviD
Duration : 1h 45mn
Bit rate : 1 495 Kbps
Width : 640 pixels
Height : 344 pixels
Display aspect ratio : 1.860
Frame rate : 25.000 fps
Color space : YUV
Chroma subsampling : 4:2:0
Bit depth : 8 bits
Scan type : Progressive
Bits/(Pixel*Frame) : 0.272
Stream size : 1.11 GiB (90%)
Writing library : XviD 1.2.1 (UTC 2008-12-04)

Audio
ID : 1
Format : AC-3
Format/Info : Audio Coding 3
Mode extension : CM (complete main)
Codec ID : 2000
Duration : 1h 45mn
Bit rate mode : Constant
Bit rate : 160 Kbps
Channel(s) : 2 channels
Channel positions : Front: L R
Sampling rate : 48.0 KHz
Bit depth : 16 bits
Stream size : 121 MiB (10%)
Alignment : Aligned on interleaves
Interleave, duration : 40 ms (1.00 video frame)
Interleave, preload duration : 512 ms


Plot:
Theseus is a mortal man chosen by Zeus to lead the fight against the ruthless King Hyperion, who is on a rampage across Greece to obtain a weapon that can destroy humanity
 
http://img849.imageshack.us/img849/1497/vlcsnap2012011409h18m42.png 
http://img338.imageshack.us/img338/36/vlcsnap2012011415h09m45.png 
http://img708.imageshack.us/img708/548/vlcsnap2012011415h10m08.png 
http://img254.imageshack.us/img254/181/vlcsnap2012011415h10m23.png 
http://img690.imageshack.us/img690/6704/vlcsnap2012011415h10m52.png

